<svg version="1.1" id="Layer_1" xmlns="http://www.w3.org/2000/svg" xmlns:xlink="http://www.w3.org/1999/xlink" x="0px" y="0px"
	 viewBox="0 0 146.92 24.77" style="enable-background:new 0 0 146.92 24.77;" xml:space="preserve">
<style type="text/css">
	.st0{fill:#DA1A5D;}
	.st1{fill:#1D96D2;}
	.st2{fill:#1E96D2;}
</style>
<g>
	<path class="st0" d="M133.28,0.01c1.01-0.02,2.01,0,3.01,0.17c0.97,0.17,1.9,0.43,2.81,0.8c0.17,0.07,0.19,0.12,0.08,0.28
		c-0.64,0.92-1.28,1.84-1.9,2.78c-0.11,0.17-0.21,0.15-0.38,0.1c-2.65-0.76-5.22-0.61-7.61,0.81c-2.16,1.28-3.71,3.1-4.21,5.62
		c-0.62,3.05,0.2,5.7,2.44,7.88c1.45,1.42,3.19,2.28,5.21,2.52c1.5,0.18,2.97,0.06,4.41-0.44c0.18-0.06,0.28-0.04,0.39,0.12
		c0.62,0.92,1.24,1.83,1.87,2.73c0.12,0.17,0.08,0.22-0.09,0.3c-1.32,0.57-2.7,0.9-4.13,1.02c-0.06,0-0.13-0.03-0.16,0.05
		c-0.68,0-1.37,0-2.05,0c-0.33-0.12-0.68-0.09-1.02-0.16c-4.98-0.9-8.55-3.61-10.22-8.42c-1.45-4.17-0.64-8.09,2.15-11.52
		c2.08-2.56,4.82-4.02,8.07-4.54C132.39,0.07,132.84,0.05,133.28,0.01z"/>
	<path class="st1" d="M39.66,5.38c0,0.17,0,0.27,0,0.36c0,5.6,0,11.2,0,16.79c0,1.29-0.79,2.08-2.08,2.08
		c-0.52,0-1.04-0.01-1.56,0.01c-0.23,0.01-0.28-0.07-0.28-0.29c0.01-3.32,0-6.63,0-9.95c0-4.65,0-9.29-0.01-13.94
		c0-0.27,0.07-0.32,0.33-0.32c1.07,0.01,2.14,0.01,3.21,0c0.49,0,0.88,0.18,1.19,0.57c3.56,4.59,7.13,9.18,10.7,13.77
		c1.22,1.57,2.45,3.15,3.67,4.72c0.04,0.05,0.08,0.09,0.16,0.19c0-0.15,0-0.24,0-0.34c0-5.63,0-11.27,0-16.9
		c0-1.22,0.79-2.01,2-2.01c0.56,0,1.11,0.01,1.67,0c0.17,0,0.23,0.05,0.21,0.21c-0.01,0.04,0,0.09,0,0.13c0,7.93,0,15.87,0.01,23.8
		c0,0.26-0.05,0.35-0.33,0.34c-1.06-0.02-2.12-0.02-3.18,0c-0.53,0.01-0.93-0.19-1.25-0.61c-1.99-2.57-3.98-5.14-5.97-7.71
		c-2.77-3.58-5.55-7.15-8.32-10.73C39.78,5.53,39.75,5.49,39.66,5.38z"/>
	<path class="st1" d="M0.01,12.36c0-3.96,0-7.93-0.01-11.89C0,0.2,0.06,0.13,0.34,0.13c5.48,0.01,10.96,0.02,16.44,0
		c1.41,0,2.76,0.19,3.99,0.91c1.98,1.16,3.31,2.82,3.62,5.14c0.38,2.84-0.7,5.08-3,6.73c-1.31,0.94-2.8,1.3-4.39,1.3
		c-4.26,0-8.52,0-12.78-0.01c-0.25,0-0.3,0.07-0.3,0.31c0.01,2.71,0.01,5.43,0.01,8.14c0,1.13-0.84,1.97-1.98,1.97
		c-0.55,0-1.1-0.01-1.64,0.01C0.06,24.63,0,24.57,0,24.33c0.01-2.2,0.01-4.4,0.01-6.6C0.01,15.94,0.01,14.15,0.01,12.36z
		 M10.77,10.54c2.05,0,4.1,0,6.15,0c0.28,0,0.56-0.02,0.83-0.05c1.59-0.21,2.93-1.68,2.94-3.23c0.02-1.91-1.53-3.45-3.49-3.45
		c-4.34,0-8.68,0-13.02-0.01c-0.24,0-0.27,0.08-0.27,0.29c0.01,2.06,0.01,4.11,0,6.17c0,0.22,0.05,0.28,0.28,0.28
		C6.39,10.53,8.58,10.54,10.77,10.54z"/>
	<path class="st0" d="M106.57,5.46c0,1.56-0.01,3.13,0.01,4.69c0.01,0.61-0.11,1.18-0.48,1.64c-0.32,0.4-0.77,0.68-1.31,0.78
		c-0.45,0.08-0.91,0.04-1.37,0.05c-0.11,0-0.15-0.04-0.14-0.14c0-0.07,0-0.14,0-0.22c0-2.68,0-5.36,0-8.03c0-0.34,0-0.35-0.35-0.28
		c-3.45,0.7-5.93,2.63-6.97,6c-1.04,3.38-0.1,6.35,2.55,8.72c2.05,1.84,4.48,2.53,7.18,2.21c3.4-0.4,5.82-2.23,7.29-5.31
		c0.41-0.85,0.56-1.77,0.63-2.71c0.01-0.2-0.04-0.26-0.25-0.26c-0.65,0.01-1.29-0.01-1.94,0.01c-0.25,0.01-0.31-0.07-0.29-0.3
		c0.03-0.33-0.01-0.66,0.04-1c0.12-0.79,0.78-1.38,1.58-1.39c1.47-0.01,2.95,0,4.42,0c0.12,0,0.23-0.03,0.23,0.16
		c-0.03,1.29,0.06,2.59-0.11,3.88c-0.35,2.6-1.46,4.83-3.27,6.71c-2.03,2.11-4.51,3.38-7.4,3.8c-5.87,0.85-11.27-2-13.6-6.96
		C90.96,13.19,91.43,9,94.27,5.16c2.11-2.84,5.02-4.41,8.51-4.91c1.18-0.17,2.36-0.15,3.55-0.01c0.2,0.02,0.24,0.11,0.24,0.29
		C106.56,2.18,106.57,3.82,106.57,5.46z"/>
	<path class="st1" d="M77.3,5.5c0,1.63-0.01,3.25,0,4.88c0,0.55-0.17,1.06-0.5,1.45c-0.42,0.5-1.01,0.79-1.7,0.8
		c-0.3,0-0.59-0.01-0.89,0c-0.15,0.01-0.2-0.05-0.2-0.2c0.01-0.46,0-0.92,0-1.37c0-2.28,0-4.57,0.01-6.85
		c0-0.26-0.04-0.33-0.32-0.27c-3.07,0.57-5.38,2.22-6.65,5.05c-1.38,3.09-0.95,6.06,1.22,8.69c1.38,1.68,3.16,2.75,5.32,3.12
		c4.82,0.84,8.57-1.78,10.1-5.19c0.39-0.87,0.58-1.79,0.64-2.74c0.01-0.23-0.07-0.27-0.27-0.26c-0.65,0.01-1.29,0-1.94,0.01
		c-0.18,0-0.26-0.04-0.25-0.24c0.02-0.27,0-0.54,0-0.81c0.01-0.93,0.7-1.64,1.64-1.64c1.45,0,2.89,0,4.34-0.01
		c0.21,0,0.27,0.06,0.27,0.27c-0.02,1.15,0.04,2.3-0.08,3.45c-0.24,2.35-1.12,4.43-2.61,6.24c-2.16,2.64-4.96,4.19-8.34,4.62
		c-3.62,0.46-6.93-0.36-9.83-2.61c-2.57-2-4.17-4.61-4.61-7.85c-0.5-3.66,0.52-6.9,2.98-9.66c2.1-2.35,4.75-3.69,7.86-4.13
		c1.19-0.17,2.38-0.15,3.57-0.01c0.19,0.02,0.23,0.1,0.23,0.28C77.3,2.18,77.3,3.84,77.3,5.5z"/>
	<path class="st2" d="M32.06,13.18c0,3.71,0,7.42,0.01,11.13c0,0.24-0.05,0.33-0.3,0.32c-0.56-0.02-1.11-0.01-1.67-0.01
		c-1.11,0-1.95-0.83-1.95-1.94c0-7.43,0-14.86-0.01-22.29c0-0.19,0.04-0.27,0.25-0.26c0.59,0.01,1.19,0,1.78,0.01
		c1.05,0.01,1.9,0.86,1.9,1.91C32.06,5.76,32.06,9.47,32.06,13.18z"/>
	<path class="st1" d="M146.92,12.42c-0.07,4.1-1.81,7.35-5.06,9.82c-0.15,0.12-0.22,0.1-0.33-0.06c-0.62-0.91-1.24-1.81-1.87-2.7
		c-0.11-0.16-0.11-0.23,0.05-0.36c1.46-1.15,2.59-2.56,3.07-4.37c0.83-3.11,0.2-5.88-2.06-8.23c-0.37-0.39-0.78-0.75-1.22-1.06
		c-0.13-0.09-0.16-0.16-0.06-0.3c0.64-0.91,1.28-1.82,1.91-2.74c0.09-0.14,0.16-0.15,0.29-0.05c2.87,2.07,4.65,4.81,5.18,8.33
		c0.04,0.27,0.08,0.55,0.09,0.83C146.93,11.83,146.92,12.13,146.92,12.42z"/>
	<path class="st2" d="M134,17.5c-2.48,0-4.63-1.57-5.25-3.82c-0.76-2.78,0.93-5.65,3.75-6.38c2.23-0.58,4.55,0.18,5.86,1.92
		c1.94,2.57,1.12,6.17-1.75,7.65C135.8,17.3,134.93,17.52,134,17.5z M134.02,8.68c-0.71-0.01-1.39,0.17-1.98,0.51
		c-1.91,1.12-2.46,3.53-1.16,5.21c1,1.28,2.33,1.74,3.91,1.47c2.08-0.35,3.46-2.51,2.9-4.52C137.27,9.81,135.75,8.7,134.02,8.68z"/>
</g>
</svg>
