<svg width="190" height="28" viewBox="0 0 190 28" fill="none" xmlns="http://www.w3.org/2000/svg">
<path d="M32.0449 2.22891C30.2654 -0.90481 25.6803 -0.690334 24.201 2.59601L21.0022 9.70208L16.0525 20.6974C14.7408 23.6113 16.8724 26.908 20.0677 26.908H20.1493C21.8882 26.908 23.4641 25.8851 24.1716 24.297L32.238 6.19569C32.8074 4.91797 32.7359 3.44554 32.0449 2.22891Z" fill="#DA1A5D"/>
<path d="M40.8239 17.7185L40.7849 17.6491C40.7093 17.5145 40.6269 17.3882 40.5417 17.2658C40.5212 17.2363 40.5007 17.2072 40.4796 17.1788C40.3932 17.0609 40.3037 16.9471 40.2089 16.8411C40.1998 16.831 40.1901 16.8219 40.181 16.812C40.092 16.7144 39.9987 16.6226 39.9029 16.5349C39.8791 16.5131 39.855 16.4908 39.8304 16.4695C39.7262 16.3782 39.6189 16.292 39.5084 16.2124C39.4932 16.2017 39.478 16.1921 39.4628 16.1817C39.3604 16.1102 39.2554 16.0443 39.1482 15.9827C39.1251 15.9695 39.102 15.9556 39.0784 15.9427C38.9588 15.8767 38.8363 15.8164 38.7119 15.7624C38.6956 15.7553 38.6789 15.7492 38.6627 15.7426C38.5448 15.6932 38.4251 15.6493 38.304 15.6105C38.2875 15.6055 38.2712 15.5996 38.2545 15.5946C38.1209 15.5538 37.9858 15.5193 37.8491 15.4914C37.836 15.4889 37.8228 15.4866 37.8096 15.484C37.6735 15.4574 37.5361 15.4366 37.3981 15.4227C37.3948 15.4224 37.3913 15.4219 37.388 15.4217C37.243 15.4075 37.0977 15.4009 36.9525 15.4006C36.9446 15.4006 36.9367 15.4009 36.9291 15.4009C36.6358 15.4024 36.343 15.4321 36.0553 15.4904C36.0527 15.4909 36.0502 15.4914 36.0477 15.4922C35.4623 15.6116 34.8992 15.8483 34.3988 16.2007C34.399 16.2005 34.3988 16.201 34.3988 16.2007C33.7901 16.6294 33.2742 17.2272 32.9289 17.9946L31.7123 20.6974C30.4006 23.6113 32.5319 26.908 35.7275 26.908H35.8096C36.9748 26.908 38.0649 26.4469 38.8718 25.666C38.8827 25.6554 38.8944 25.6453 38.9053 25.6346C38.9479 25.5923 38.9887 25.5482 39.0295 25.5043C39.0561 25.4759 39.0828 25.4478 39.1086 25.4189C39.1439 25.3788 39.1778 25.3377 39.2118 25.2964C39.2415 25.2602 39.2709 25.2237 39.2998 25.1864C39.3294 25.1479 39.3583 25.1088 39.3867 25.0693C39.4182 25.0257 39.4483 24.981 39.4782 24.9364C39.5023 24.8997 39.5267 24.8634 39.55 24.8259C39.5835 24.7721 39.6149 24.7169 39.6461 24.6616C39.6636 24.6304 39.6818 24.6 39.6988 24.5683C39.7457 24.4796 39.7906 24.3893 39.8316 24.297L41.0049 21.6638C41.571 20.3939 41.5038 18.9314 40.8239 17.7185Z" fill="#DA1A5D"/>
<path d="M16.5786 6.19569C17.148 4.91797 17.0763 3.44554 16.3855 2.22892C16.3241 2.12066 16.2584 2.01723 16.1905 1.91709C16.1684 1.88464 16.1454 1.85422 16.1228 1.82278C16.0749 1.75611 16.0265 1.69045 15.9763 1.62757C15.9486 1.5931 15.9203 1.56014 15.8921 1.52667C15.8432 1.46938 15.7935 1.41361 15.7425 1.35961C15.7126 1.32792 15.6825 1.29648 15.652 1.2658C15.598 1.21206 15.5428 1.16034 15.4865 1.10989C15.4576 1.08403 15.4292 1.05741 15.3998 1.03232C15.3288 0.971979 15.256 0.914684 15.1823 0.859671C15.1663 0.848009 15.1513 0.83508 15.1354 0.823672C15.0449 0.758011 14.9521 0.69666 14.8573 0.639111C14.8319 0.623393 14.8053 0.609704 14.7794 0.594746C14.7097 0.55393 14.6395 0.514888 14.5682 0.478382C14.5333 0.460636 14.498 0.444411 14.463 0.427678C14.3981 0.397003 14.333 0.367595 14.2668 0.340215C14.2298 0.32475 14.1925 0.309793 14.155 0.295343C14.0878 0.269484 14.0204 0.245907 13.9522 0.223597C13.9165 0.211682 13.881 0.199513 13.845 0.188612C13.7661 0.165288 13.6868 0.1445 13.6072 0.125233C13.5816 0.119402 13.5567 0.11205 13.5311 0.106219C13.4249 0.0826418 13.3182 0.0628675 13.2107 0.047403C13.1924 0.0446143 13.1742 0.0433468 13.1559 0.0408116C13.0672 0.0291498 12.9784 0.0195164 12.8895 0.0131785C12.8542 0.0103898 12.819 0.00937553 12.7843 0.00785442C12.711 0.00405167 12.6377 0.00177002 12.5645 0.00177002C12.5257 0.00177002 12.4874 0.00253032 12.4486 0.00354439C12.3774 0.00531901 12.3064 0.00886872 12.2351 0.0141926C12.1974 0.0167277 12.1598 0.0192627 12.1223 0.0230654C12.046 0.0304174 11.97 0.0405581 11.8939 0.0519663C11.863 0.0565296 11.8318 0.0600791 11.8009 0.0654029C11.6941 0.0836562 11.5879 0.104951 11.4827 0.131064C11.4829 0.131064 11.4824 0.131064 11.4827 0.131064C10.2544 0.434523 9.14197 1.26226 8.54139 2.59601L0.393109 20.6974C-0.918588 23.6113 1.21273 26.908 4.40831 26.908H4.48994C6.22856 26.908 7.80417 25.8851 8.51199 24.2971L14.3903 11.1063L16.5786 6.19569Z" fill="#DA1A5D"/>
<path d="M56.2158 27L49.9729 5.18182H55.0119L58.6234 20.3416H58.8045L62.7889 5.18182H67.1035L71.0773 20.3736H71.269L74.8805 5.18182H79.9196L73.6767 27H69.181L65.0261 12.7351H64.8557L60.7115 27H56.2158ZM88.4029 27.3196C86.7196 27.3196 85.2708 26.9787 84.0563 26.2969C82.8489 25.608 81.9185 24.6349 81.2651 23.3778C80.6117 22.1136 80.285 20.6186 80.285 18.8928C80.285 17.2095 80.6117 15.7322 81.2651 14.4609C81.9185 13.1896 82.8382 12.1989 84.0243 11.4886C85.2175 10.7784 86.6166 10.4233 88.2218 10.4233C89.3013 10.4233 90.3063 10.5973 91.2367 10.9453C92.1742 11.2862 92.9909 11.8011 93.687 12.4901C94.3901 13.179 94.937 14.0455 95.3276 15.0895C95.7182 16.1264 95.9135 17.3409 95.9135 18.733V19.9794H82.0961V17.1669H91.6415C91.6415 16.5135 91.4995 15.9347 91.2154 15.4304C90.9313 14.9261 90.5371 14.532 90.0328 14.2479C89.5357 13.9567 88.9568 13.8111 88.2963 13.8111C87.6074 13.8111 86.9966 13.9709 86.464 14.2905C85.9384 14.603 85.5265 15.0256 85.2282 15.5582C84.9299 16.0838 84.7772 16.6697 84.7701 17.3161V19.9901C84.7701 20.7997 84.9192 21.4993 85.2175 22.0888C85.5229 22.6783 85.9526 23.1328 86.5066 23.4524C87.0605 23.772 87.7175 23.9318 88.4774 23.9318C88.9817 23.9318 89.4434 23.8608 89.8624 23.7188C90.2814 23.5767 90.6401 23.3636 90.9384 23.0795C91.2367 22.7955 91.464 22.4474 91.6202 22.0355L95.8176 22.3125C95.6046 23.321 95.1678 24.2017 94.5073 24.9545C93.8539 25.7003 93.0087 26.2827 91.9718 26.7017C90.9419 27.1136 89.7523 27.3196 88.4029 27.3196ZM99.3604 27V5.18182H103.899V13.3849H104.037C104.236 12.9446 104.524 12.4972 104.9 12.0426C105.284 11.581 105.781 11.1974 106.392 10.892C107.01 10.5795 107.777 10.4233 108.693 10.4233C109.886 10.4233 110.987 10.7358 111.995 11.3608C113.004 11.9787 113.81 12.9126 114.414 14.1626C115.017 15.4055 115.319 16.9645 115.319 18.8395C115.319 20.6648 115.024 22.206 114.435 23.4631C113.853 24.7131 113.057 25.6612 112.049 26.3075C111.047 26.9467 109.925 27.2663 108.682 27.2663C107.801 27.2663 107.052 27.1207 106.434 26.8295C105.823 26.5384 105.323 26.1726 104.932 25.7322C104.542 25.2848 104.243 24.8338 104.037 24.3793H103.835V27H99.3604ZM103.803 18.8182C103.803 19.7912 103.938 20.6399 104.208 21.3643C104.478 22.0888 104.868 22.6534 105.38 23.0582C105.891 23.456 106.512 23.6548 107.244 23.6548C107.983 23.6548 108.608 23.4524 109.119 23.0476C109.63 22.6357 110.017 22.0675 110.28 21.343C110.55 20.6115 110.685 19.7699 110.685 18.8182C110.685 17.8736 110.554 17.0426 110.291 16.3253C110.028 15.608 109.641 15.0469 109.13 14.642C108.618 14.2372 107.99 14.0348 107.244 14.0348C106.505 14.0348 105.88 14.2301 105.369 14.6207C104.865 15.0114 104.478 15.5653 104.208 16.2827C103.938 17 103.803 17.8452 103.803 18.8182ZM118.833 27V5.18182H123.371V13.3849H123.51C123.708 12.9446 123.996 12.4972 124.372 12.0426C124.756 11.581 125.253 11.1974 125.864 10.892C126.482 10.5795 127.249 10.4233 128.165 10.4233C129.358 10.4233 130.459 10.7358 131.468 11.3608C132.476 11.9787 133.282 12.9126 133.886 14.1626C134.49 15.4055 134.791 16.9645 134.791 18.8395C134.791 20.6648 134.497 22.206 133.907 23.4631C133.325 24.7131 132.529 25.6612 131.521 26.3075C130.519 26.9467 129.397 27.2663 128.154 27.2663C127.274 27.2663 126.524 27.1207 125.907 26.8295C125.296 26.5384 124.795 26.1726 124.404 25.7322C124.014 25.2848 123.715 24.8338 123.51 24.3793H123.307V27H118.833ZM123.275 18.8182C123.275 19.7912 123.41 20.6399 123.68 21.3643C123.95 22.0888 124.34 22.6534 124.852 23.0582C125.363 23.456 125.985 23.6548 126.716 23.6548C127.455 23.6548 128.08 23.4524 128.591 23.0476C129.103 22.6357 129.49 22.0675 129.752 21.343C130.022 20.6115 130.157 19.7699 130.157 18.8182C130.157 17.8736 130.026 17.0426 129.763 16.3253C129.5 15.608 129.113 15.0469 128.602 14.642C128.09 14.2372 127.462 14.0348 126.716 14.0348C125.978 14.0348 125.353 14.2301 124.841 14.6207C124.337 15.0114 123.95 15.5653 123.68 16.2827C123.41 17 123.275 17.8452 123.275 18.8182ZM142.886 27.3089C141.842 27.3089 140.911 27.1278 140.095 26.7656C139.278 26.3963 138.632 25.853 138.156 25.1357C137.687 24.4112 137.453 23.5092 137.453 22.4297C137.453 21.5206 137.62 20.7571 137.953 20.1392C138.287 19.5213 138.742 19.0241 139.317 18.6477C139.892 18.2713 140.546 17.9872 141.277 17.7955C142.016 17.6037 142.79 17.4688 143.6 17.3906C144.551 17.2912 145.318 17.1989 145.901 17.1136C146.483 17.0213 146.906 16.8864 147.169 16.7088C147.431 16.5312 147.563 16.2685 147.563 15.9205V15.8565C147.563 15.1818 147.35 14.6598 146.924 14.2905C146.505 13.9212 145.908 13.7365 145.134 13.7365C144.317 13.7365 143.667 13.9176 143.184 14.2798C142.701 14.6349 142.382 15.0824 142.225 15.6222L138.028 15.2812C138.241 14.2869 138.66 13.4276 139.285 12.7031C139.91 11.9716 140.716 11.4105 141.703 11.0199C142.698 10.6222 143.848 10.4233 145.155 10.4233C146.064 10.4233 146.934 10.5298 147.765 10.7429C148.603 10.956 149.345 11.2862 149.992 11.7337C150.645 12.1811 151.16 12.7564 151.536 13.4595C151.913 14.1555 152.101 14.9901 152.101 15.9631V27H147.797V24.7308H147.669C147.406 25.2422 147.055 25.6932 146.615 26.0838C146.174 26.4673 145.645 26.7692 145.027 26.9893C144.409 27.2024 143.696 27.3089 142.886 27.3089ZM144.186 24.1768C144.853 24.1768 145.443 24.0455 145.954 23.7827C146.465 23.5128 146.867 23.1506 147.158 22.696C147.449 22.2415 147.595 21.7266 147.595 21.1513V19.4148C147.453 19.5071 147.257 19.5923 147.009 19.6705C146.767 19.7415 146.494 19.8089 146.188 19.8729C145.883 19.9297 145.578 19.983 145.272 20.0327C144.967 20.0753 144.69 20.1143 144.441 20.1499C143.909 20.228 143.443 20.3523 143.046 20.5227C142.648 20.6932 142.339 20.924 142.119 21.2152C141.899 21.4993 141.789 21.8544 141.789 22.2805C141.789 22.8984 142.012 23.3707 142.46 23.6974C142.914 24.017 143.49 24.1768 144.186 24.1768ZM169.637 15.3026L165.482 15.5582C165.411 15.2031 165.259 14.8835 165.024 14.5994C164.79 14.3082 164.481 14.0774 164.097 13.907C163.721 13.7294 163.27 13.6406 162.744 13.6406C162.041 13.6406 161.448 13.7898 160.965 14.0881C160.482 14.3793 160.241 14.7699 160.241 15.2599C160.241 15.6506 160.397 15.9808 160.71 16.2507C161.022 16.5206 161.558 16.7372 162.318 16.9006L165.28 17.4972C166.871 17.8239 168.057 18.3494 168.838 19.0739C169.619 19.7983 170.01 20.75 170.01 21.929C170.01 23.0014 169.694 23.9425 169.062 24.7521C168.437 25.5618 167.577 26.1939 166.484 26.6484C165.397 27.0959 164.143 27.3196 162.723 27.3196C160.557 27.3196 158.831 26.8686 157.545 25.9666C156.267 25.0575 155.518 23.8217 155.298 22.2592L159.761 22.0249C159.896 22.6854 160.223 23.1896 160.742 23.5376C161.26 23.8786 161.924 24.049 162.734 24.049C163.529 24.049 164.168 23.8963 164.651 23.5909C165.141 23.2784 165.39 22.8771 165.397 22.3871C165.39 21.9751 165.216 21.6378 164.875 21.375C164.534 21.1051 164.009 20.8991 163.298 20.7571L160.465 20.1925C158.867 19.8729 157.677 19.3189 156.896 18.5305C156.121 17.7422 155.734 16.7372 155.734 15.5156C155.734 14.4645 156.018 13.5589 156.587 12.799C157.162 12.0391 157.968 11.4531 159.005 11.0412C160.049 10.6293 161.271 10.4233 162.67 10.4233C164.737 10.4233 166.363 10.8601 167.549 11.7337C168.742 12.6072 169.438 13.7969 169.637 15.3026ZM180.725 27.3196C179.042 27.3196 177.593 26.9787 176.379 26.2969C175.171 25.608 174.241 24.6349 173.587 23.3778C172.934 22.1136 172.607 20.6186 172.607 18.8928C172.607 17.2095 172.934 15.7322 173.587 14.4609C174.241 13.1896 175.161 12.1989 176.347 11.4886C177.54 10.7784 178.939 10.4233 180.544 10.4233C181.624 10.4233 182.629 10.5973 183.559 10.9453C184.496 11.2862 185.313 11.8011 186.009 12.4901C186.712 13.179 187.259 14.0455 187.65 15.0895C188.04 16.1264 188.236 17.3409 188.236 18.733V19.9794H174.418V17.1669H183.964C183.964 16.5135 183.822 15.9347 183.538 15.4304C183.254 14.9261 182.859 14.532 182.355 14.2479C181.858 13.9567 181.279 13.8111 180.619 13.8111C179.93 13.8111 179.319 13.9709 178.786 14.2905C178.261 14.603 177.849 15.0256 177.55 15.5582C177.252 16.0838 177.099 16.6697 177.092 17.3161V19.9901C177.092 20.7997 177.241 21.4993 177.54 22.0888C177.845 22.6783 178.275 23.1328 178.829 23.4524C179.383 23.772 180.04 23.9318 180.8 23.9318C181.304 23.9318 181.766 23.8608 182.185 23.7188C182.604 23.5767 182.962 23.3636 183.261 23.0795C183.559 22.7955 183.786 22.4474 183.942 22.0355L188.14 22.3125C187.927 23.321 187.49 24.2017 186.83 24.9545C186.176 25.7003 185.331 26.2827 184.294 26.7017C183.264 27.1136 182.075 27.3196 180.725 27.3196Z" fill="#555555"/>
</svg>
