<svg width="25" height="24" viewBox="0 0 25 24" fill="none" xmlns="http://www.w3.org/2000/svg">
<path d="M6.7693 10.043V8.05046C6.7693 4.75288 7.76555 2.07296 12.7468 2.07296C17.7281 2.07296 18.7243 4.75288 18.7243 8.05046V10.043" stroke="#797979" stroke-width="1.49438" stroke-linecap="round" stroke-linejoin="round"/>
<path d="M12.7464 18.511C14.1219 18.511 15.237 17.3959 15.237 16.0204C15.237 14.6449 14.1219 13.5298 12.7464 13.5298C11.3709 13.5298 10.2558 14.6449 10.2558 16.0204C10.2558 17.3959 11.3709 18.511 12.7464 18.511Z" stroke="#797979" stroke-width="1.49438" stroke-linecap="round" stroke-linejoin="round"/>
<path d="M17.7275 21.9977H7.76502C3.78002 21.9977 2.78377 21.0015 2.78377 17.0165V15.024C2.78377 11.039 3.78002 10.0427 7.76502 10.0427H17.7275C21.7125 10.0427 22.7088 11.039 22.7088 15.024V17.0165C22.7088 21.0015 21.7125 21.9977 17.7275 21.9977Z" stroke="#797979" stroke-width="1.49438" stroke-linecap="round" stroke-linejoin="round"/>
</svg>
